<?xml version="1.0" encoding="utf-8"?>
<!-- Generator: Adobe Illustrator 23.0.2, SVG Export Plug-In . SVG Version: 6.00 Build 0)  -->
<svg version="1.1" id="Õ_xBA__x2264__x201E__x5F_1"
	 xmlns="http://www.w3.org/2000/svg" xmlns:xlink="http://www.w3.org/1999/xlink" x="0px" y="0px" viewBox="0 0 120 120"
	 style="enable-background:new 0 0 120 120;" xml:space="preserve">
<style type="text/css">
	.st0{fill:none;stroke:#2C282C;stroke-width:0.6;stroke-miterlimit:10;}
	.st1{fill:#2C282C;}
	.st2{opacity:0.35;}
	.st3{opacity:0.7;fill:#85EA2D;}
	.st4{opacity:0.8;fill:#38B832;}
	.st5{opacity:0.8;fill:#63DB2A;}
	.st6{fill:#93D500;}
	.st7{fill:#4D5A31;}
	.st8{fill:#6BA43A;}
	.st9{fill:#424143;}
</style>
<g>
	<g>
		<path class="st6" d="M50.165,61.64h-0.049l-12.757,0c0.002,0.063,0.004,0.125,0.007,0.187c0.005,0.12,0.014,0.241,0.021,0.361
			c0.003,0.052,0.006,0.103,0.01,0.154c0.01,0.139,0.022,0.278,0.035,0.417c0.003,0.031,0.006,0.063,0.009,0.093
			c0.015,0.154,0.031,0.308,0.05,0.461c0.001,0.015,0.003,0.03,0.005,0.045c0.02,0.165,0.041,0.331,0.066,0.496
			c0,0.002,0,0.004,0.001,0.006c0.147,1.021,0.368,2.032,0.661,3.026c0.001,0.004,0.003,0.008,0.004,0.013
			c0.046,0.156,0.095,0.312,0.144,0.467c0.003,0.009,0.006,0.018,0.009,0.028c0.003,0.009,0.006,0.018,0.009,0.028
			c0.045,0.14,0.093,0.279,0.141,0.419c0.013,0.035,0.024,0.071,0.037,0.106c0.043,0.121,0.087,0.242,0.132,0.363
			c0.021,0.055,0.041,0.109,0.062,0.164c0.039,0.1,0.078,0.199,0.117,0.299c0.03,0.075,0.061,0.15,0.092,0.225
			c0.032,0.078,0.065,0.156,0.098,0.234c0.041,0.095,0.083,0.19,0.125,0.285c0.025,0.057,0.051,0.113,0.076,0.169
			c0.052,0.114,0.106,0.228,0.159,0.341c0.018,0.036,0.035,0.073,0.053,0.109c0.063,0.13,0.127,0.26,0.192,0.388
			c0.011,0.02,0.02,0.04,0.031,0.059c0.073,0.142,0.148,0.284,0.224,0.425c0.003,0.006,0.007,0.012,0.01,0.019
			c0.016,0.029,0.034,0.057,0.05,0.087l10.937-6.589l0.04-0.024C50.533,63.59,50.264,62.623,50.165,61.64z"/>
		<polygon class="st6" points="37.963,67.513 37.967,67.524 38.38,67.394 		"/>
		<path class="st7" d="M53.312,67.519l-0.031,0.031l-9.02,9.021c0.046,0.043,0.092,0.087,0.14,0.129
			c0.084,0.076,0.17,0.152,0.255,0.226c0.044,0.039,0.088,0.079,0.132,0.116c0.102,0.088,0.205,0.175,0.308,0.261
			c0.028,0.024,0.056,0.046,0.083,0.069c0.116,0.096,0.234,0.19,0.352,0.283c0.015,0.012,0.03,0.024,0.045,0.036
			c0.128,0.101,0.257,0.199,0.387,0.297c0.006,0.004,0.011,0.007,0.015,0.011c0.543,0.406,1.106,0.786,1.688,1.141
			c0.02,0.012,0.04,0.024,0.06,0.037c0.11,0.066,0.221,0.132,0.332,0.196c0.068,0.039,0.136,0.078,0.204,0.116
			c0.064,0.037,0.128,0.073,0.193,0.109c0.117,0.064,0.235,0.128,0.353,0.19c0.016,0.009,0.032,0.018,0.049,0.026
			c0.328,0.172,0.662,0.331,0.998,0.484l0,0l0.32-0.777l4.537-11.018l0.017-0.041C54.234,68.199,53.759,67.885,53.312,67.519z"/>
		<path class="st8" d="M52.372,66.621c-0.097-0.109-0.19-0.219-0.281-0.332c-0.08-0.099-0.159-0.2-0.234-0.302
			c-0.086-0.117-0.171-0.235-0.251-0.355c-0.08-0.121-0.16-0.242-0.234-0.365l-10.951,6.597c0.168,0.279,0.344,0.552,0.523,0.82
			c0.006,0.009,0.012,0.019,0.018,0.028l0,0c0.002,0.003,0.004,0.007,0.006,0.01c0.006,0.009,0.011,0.018,0.017,0.027
			c0.001,0.001,0.001,0.002,0.002,0.003c0.014,0.021,0.029,0.043,0.044,0.064c0.001,0.001,0.002,0.002,0.003,0.004c0,0,0,0,0,0
			c0,0.001,0.001,0.001,0.001,0.002c0.19,0.281,0.385,0.558,0.587,0.828c0.004,0.006,0.009,0.012,0.013,0.017
			c0.004,0.006,0.009,0.011,0.013,0.017c0.087,0.116,0.175,0.232,0.266,0.347c0.012,0.015,0.024,0.03,0.036,0.045
			c0.093,0.119,0.187,0.236,0.283,0.352c0.023,0.028,0.046,0.055,0.069,0.083c0.087,0.104,0.173,0.206,0.262,0.309
			c0.038,0.044,0.077,0.088,0.115,0.131c0.075,0.086,0.15,0.171,0.227,0.256c0.042,0.046,0.086,0.093,0.129,0.139
			c0.02,0.021,0.039,0.042,0.058,0.063c0.056,0.061,0.112,0.121,0.169,0.181c0.023,0.024,0.046,0.047,0.069,0.071
			c0.1,0.104,0.2,0.208,0.303,0.31l9.034-9.034C52.565,66.834,52.469,66.728,52.372,66.621z"/>
		<path class="st7" d="M64.347,67.514c-0.099,0.08-0.2,0.159-0.302,0.234l0.023,0.038l6.586,10.933
			c0.305-0.199,0.606-0.404,0.901-0.62c0.637-0.47,1.254-0.979,1.849-1.528l-9.021-9.021L64.347,67.514z"/>
		<path class="st6" d="M69.822,79.24c0.005-0.003,0.01-0.005,0.015-0.008l0-0.001C69.831,79.234,69.827,79.237,69.822,79.24
			L69.822,79.24z"/>
		<polygon class="st6" points="69.815,79.244 69.816,79.244 69.815,79.244 69.815,79.244 		"/>
		<path class="st6" d="M69.836,79.232L69.836,79.232c0.029-0.016,0.058-0.031,0.086-0.048l-0.002-0.003
			C69.892,79.198,69.864,79.215,69.836,79.232z"/>
		<polygon class="st6" points="69.818,79.242 69.822,79.24 69.822,79.24 		"/>
		<polygon class="st6" points="69.815,79.244 69.815,79.244 69.799,79.217 		"/>
		<path class="st6" d="M69.822,79.24L69.822,79.24c0.005-0.003,0.01-0.005,0.015-0.008l0,0
			C69.832,79.235,69.827,79.237,69.822,79.24z"/>
		<polygon class="st6" points="69.81,79.247 69.81,79.247 69.813,79.245 69.813,79.245 		"/>
		<polygon class="st6" points="69.815,79.244 69.813,79.245 69.813,79.245 69.815,79.244 		"/>
		<polygon class="st6" points="69.818,79.242 69.815,79.244 69.816,79.244 69.822,79.241 69.822,79.24 		"/>
		<path class="st6" d="M69.837,79.232c0.028-0.017,0.058-0.031,0.086-0.048C69.894,79.201,69.865,79.216,69.837,79.232
			L69.837,79.232z"/>
		<polygon class="st6" points="69.922,79.184 69.921,79.181 69.921,79.181 		"/>
		<rect x="69.81" y="79.247" transform="matrix(0.8321 -0.5547 0.5547 0.8321 -32.234 52.033)" class="st6" width="0" height="0"/>
		<polygon class="st6" points="69.806,79.249 69.807,79.249 69.807,79.249 		"/>
		<polygon class="st6" points="69.809,79.247 69.807,79.249 69.807,79.249 69.81,79.247 69.81,79.247 		"/>
		<path class="st6" d="M69.697,78.81l-0.223-0.371l-6.148-10.206c-0.124,0.075-0.252,0.143-0.379,0.211
			c-0.128,0.069-0.258,0.133-0.388,0.195c-1.181,0.56-2.46,0.846-3.74,0.846c-0.839,0-1.677-0.121-2.488-0.363
			c-0.138-0.041-0.273-0.095-0.409-0.144c-0.136-0.048-0.275-0.09-0.409-0.145l-4.534,11.01l-0.178,0.432l-0.152,0.37l-0.001,0.002
			c0.012,0.005,0.024,0.009,0.035,0.014c0.012,0.005,0.025,0.009,0.037,0.014l0,0c0,0,0.001,0,0.001,0
			c0.003,0.001,0.006,0.002,0.009,0.003c0.107,0.044,0.215,0.082,0.322,0.123c0.135,0.052,0.27,0.106,0.405,0.155
			c0.069,0.025,0.137,0.055,0.206,0.079l0,0l0,0c1.42,0.502,2.89,0.853,4.384,1.049c0.058,0.007,0.116,0.015,0.175,0.023
			c0.061,0.007,0.123,0.013,0.184,0.02c0.115,0.013,0.23,0.026,0.346,0.038c0.029,0.002,0.057,0.005,0.086,0.007
			c0.142,0.013,0.283,0.025,0.424,0.035c0.048,0.004,0.096,0.006,0.144,0.009c0.124,0.008,0.248,0.016,0.372,0.022
			c0.076,0.004,0.152,0.006,0.228,0.009c0.098,0.004,0.196,0.007,0.296,0.01c0.142,0.004,0.285,0.005,0.427,0.005
			c0.034,0,0.067,0.001,0.101,0.001c1.194,0,2.387-0.099,3.567-0.297h0c0.02-0.003,0.039-0.006,0.06-0.009
			c0.125-0.022,0.249-0.045,0.374-0.068c0.071-0.014,0.142-0.027,0.213-0.041c0.073-0.015,0.146-0.03,0.219-0.046
			c0.122-0.026,0.243-0.052,0.365-0.08c0.022-0.005,0.044-0.009,0.066-0.015c1.794-0.418,3.527-1.066,5.155-1.922l0.001,0l0,0
			c0.106-0.056,0.211-0.12,0.317-0.178c0.126-0.069,0.252-0.141,0.378-0.213c0.087-0.05,0.175-0.096,0.261-0.147c0,0,0,0,0,0
			c0.001-0.001,0.002-0.001,0.003-0.002c0,0,0,0,0,0l0,0c0.001-0.001,0.002-0.001,0.004-0.002c0.001,0,0.001-0.001,0.002-0.001
			l-0.016-0.027l0.016,0.027c0.001-0.001,0.002-0.001,0.002-0.001c0.001-0.001,0.002-0.001,0.004-0.002
			c0.005-0.003,0.01-0.006,0.014-0.009c0.028-0.017,0.056-0.034,0.085-0.051l0,0L69.697,78.81z"/>
		<path class="st6" d="M53.317,54.033c0.099-0.08,0.2-0.159,0.302-0.234l-0.023-0.038L47.01,42.828
			c-0.306,0.2-0.608,0.406-0.903,0.622c-0.637,0.469-1.253,0.978-1.847,1.526l9.021,9.021L53.317,54.033z"/>
		<path class="st7" d="M43.635,45.577c-0.103,0.103-0.2,0.209-0.3,0.313c-0.1,0.104-0.202,0.207-0.3,0.313
			c-0.666,0.721-1.276,1.477-1.825,2.262c-0.026,0.037-0.053,0.076-0.079,0.113c-0.062,0.09-0.123,0.18-0.183,0.271
			c-0.063,0.094-0.125,0.189-0.186,0.284c-0.023,0.035-0.046,0.07-0.068,0.104c-2.075,3.255-3.187,6.947-3.336,10.67
			c-0.006,0.144-0.009,0.289-0.012,0.433c-0.003,0.144-0.008,0.289-0.008,0.433l12.776,0c0-0.145,0.014-0.289,0.021-0.433
			c0.007-0.145,0.009-0.289,0.024-0.433c0.165-1.664,0.807-3.288,1.927-4.653c0.091-0.111,0.194-0.215,0.291-0.322
			c0.097-0.107,0.187-0.218,0.291-0.322L43.635,45.577z"/>
		<path class="st7" d="M69.996,42.405c-0.017-0.011-0.035-0.021-0.053-0.032c-0.112-0.069-0.226-0.135-0.339-0.202
			c-0.066-0.038-0.132-0.075-0.198-0.113c-0.067-0.037-0.133-0.074-0.2-0.111c-0.115-0.063-0.231-0.126-0.347-0.187
			c-0.018-0.009-0.036-0.019-0.055-0.029c-0.749-0.392-1.518-0.737-2.304-1.036c-0.02-0.008-0.041-0.016-0.061-0.024
			c-0.171-0.064-0.343-0.128-0.515-0.188c-1.395-0.487-2.839-0.829-4.305-1.022c-0.06-0.008-0.12-0.017-0.18-0.024
			c-0.06-0.007-0.12-0.013-0.18-0.02c-0.116-0.013-0.231-0.026-0.347-0.038c-0.032-0.003-0.065-0.005-0.097-0.009
			c-0.137-0.013-0.275-0.025-0.413-0.034c-0.053-0.004-0.107-0.007-0.161-0.01c-0.118-0.008-0.237-0.016-0.355-0.021
			c-0.063-0.003-0.126-0.005-0.188-0.007l-0.001,12.757v0.05c0.657,0.068,1.308,0.208,1.94,0.422l9.425-9.425
			C70.714,42.862,70.36,42.627,69.996,42.405z"/>
		<polygon class="st8" points="47.967,42.738 47.744,42.366 47.744,42.366 47.967,42.738 		"/>
		<polygon class="st8" points="47.742,42.364 47.744,42.366 47.744,42.366 		"/>
		<path class="st8" d="M58.399,39.291c-0.144,0.003-0.289,0.003-0.433,0.009c-0.904,0.036-1.806,0.129-2.701,0.278
			c-0.02,0.003-0.039,0.006-0.059,0.01c-0.126,0.022-0.25,0.044-0.375,0.068c-0.07,0.013-0.142,0.027-0.212,0.041
			c-0.074,0.015-0.147,0.03-0.22,0.046c-0.121,0.025-0.243,0.052-0.364,0.08h0c-0.022,0.005-0.044,0.01-0.066,0.015
			c-1.794,0.418-3.528,1.066-5.155,1.923c0,0,0,0,0,0l0,0c-0.106,0.056-0.21,0.12-0.316,0.178c-0.126,0.069-0.252,0.141-0.378,0.213
			c-0.093,0.054-0.188,0.103-0.281,0.158c-0.001,0.001-0.002,0.001-0.003,0.002c0,0,0,0,0,0c-0.006,0.004-0.013,0.007-0.02,0.011
			c-0.024,0.015-0.049,0.027-0.073,0.041l0.001,0.002l0.224,0.371h0l6.371,10.577c0.124-0.075,0.252-0.143,0.379-0.211
			c0.128-0.069,0.257-0.133,0.388-0.196c0.91-0.433,1.877-0.702,2.86-0.802c0.144-0.015,0.289-0.027,0.433-0.034
			c0.144-0.007,0.289-0.015,0.433-0.015l0.001-12.776C58.688,39.282,58.543,39.288,58.399,39.291z"/>
		<path class="st7" d="M80.298,59.717c-0.006-0.115-0.013-0.229-0.021-0.344c-0.003-0.057-0.007-0.114-0.011-0.172
			c-0.009-0.135-0.021-0.27-0.033-0.405c-0.003-0.035-0.006-0.07-0.009-0.105c-0.015-0.151-0.031-0.301-0.048-0.452
			c-0.002-0.012-0.003-0.024-0.004-0.036c-0.001-0.006-0.001-0.012-0.002-0.017c-0.02-0.163-0.041-0.325-0.064-0.487
			c0-0.005-0.001-0.011-0.002-0.015c-0.147-1.019-0.367-2.028-0.66-3.021c-0.002-0.007-0.004-0.013-0.006-0.019
			c-0.046-0.154-0.093-0.307-0.142-0.461c-0.007-0.02-0.013-0.04-0.019-0.061c-0.045-0.138-0.091-0.276-0.139-0.413
			c-0.013-0.037-0.026-0.074-0.039-0.112c-0.042-0.119-0.085-0.238-0.13-0.356c-0.021-0.057-0.043-0.113-0.065-0.169
			c-0.037-0.098-0.076-0.197-0.115-0.294c-0.031-0.078-0.063-0.155-0.094-0.231c-0.031-0.076-0.063-0.152-0.095-0.228
			c-0.042-0.097-0.084-0.194-0.128-0.291c-0.024-0.054-0.049-0.109-0.074-0.164c-0.053-0.115-0.107-0.231-0.162-0.346
			c-0.017-0.035-0.033-0.07-0.05-0.105c-0.064-0.131-0.128-0.262-0.194-0.393c-0.009-0.018-0.019-0.036-0.028-0.054
			c-0.074-0.143-0.149-0.287-0.226-0.429c-0.003-0.005-0.005-0.01-0.008-0.015c-0.372-0.685-0.781-1.347-1.223-1.984l-9.428,9.429
			c0.215,0.632,0.354,1.283,0.422,1.94h0.05h12.757C80.303,59.844,80.301,59.78,80.298,59.717z"/>
		<path class="st8" d="M67.548,60.773c0,0.145-0.014,0.289-0.021,0.433c-0.007,0.145-0.009,0.289-0.024,0.433
			c-0.165,1.664-0.807,3.289-1.927,4.653c-0.091,0.111-0.194,0.215-0.291,0.322c-0.097,0.107-0.187,0.218-0.291,0.322l9.034,9.034
			c0.103-0.103,0.199-0.209,0.3-0.313c0.1-0.104,0.202-0.207,0.3-0.313c0.668-0.724,1.279-1.482,1.83-2.269
			c0.022-0.031,0.043-0.062,0.064-0.093c0.067-0.096,0.132-0.194,0.198-0.291c0.057-0.087,0.115-0.174,0.171-0.262
			c0.028-0.042,0.055-0.086,0.082-0.128c2.072-3.253,3.181-6.942,3.329-10.662c0.006-0.144,0.009-0.289,0.012-0.433
			c0.003-0.144,0.008-0.289,0.007-0.433H67.548z"/>
	</g>
	<path class="st9" d="M84.118,35.487c-2.337-2.337-6.127-2.337-8.464,0c-1.865,1.865-2.237,4.651-1.127,6.89L61.49,55.415
		c-2.238-1.11-5.025-0.738-6.89,1.127c-2.338,2.337-2.337,6.127,0,8.465c2.338,2.338,6.128,2.337,8.465,0
		c1.865-1.864,2.237-4.652,1.126-6.89l13.038-13.037c2.239,1.11,5.025,0.738,6.89-1.127C86.456,41.614,86.456,37.824,84.118,35.487z
		"/>
</g>
</svg>
